<?xml version="1.0" encoding="UTF-8"?>
<svg width="296px" height="52px" viewBox="0 0 296 52" version="1.1" xmlns="http://www.w3.org/2000/svg" xmlns:xlink="http://www.w3.org/1999/xlink">
    <!-- Generator: sketchtool 54.1 (76490) - https://sketchapp.com -->
    <title>25408CF9-CCF7-4A36-B340-B32EBCF10EB3</title>
    <desc>Created with sketchtool.</desc>
    <g id="Page-2" stroke="none" stroke-width="1" fill="none" fill-rule="evenodd">
        <g id="review28.-게시물-글쓰기-입력폼-입력-없이-임시저장-했을-때" transform="translate(-32.000000, -257.000000)">
            <g id="ic_editor_menu" transform="translate(32.000000, 257.000000)">
                <rect id="Rectangle" fill="#F6F6F6" x="0" y="0" width="296" height="52" rx="8"></rect>
                <g id="Group" transform="translate(121.000000, 12.000000)" fill="#6EA3EB">
                    <path d="M29,5 L34,5 L34,9 L29,9 L29,14 L25,14 L25,9 L20,9 L20,5 L25,5 L25,0 L29,0 L29,5 Z" id="Combined-Shape"></path>
                    <path d="M1.133,19.155 L1.133,24.468 C2.013,24.446 2.97,24.369 4.048,24.171 L4.169,25.139 C2.838,25.381 1.694,25.436 0.66,25.436 L-1.13686838e-13,25.436 L-1.13686838e-13,19.155 L1.133,19.155 Z M6.93,18.011 L8.008,18.011 L8.008,27.944 L6.93,27.944 L6.93,22.895 L5.753,22.895 L5.753,27.449 L4.686,27.449 L4.686,18.209 L5.753,18.209 L5.753,21.96 L6.93,21.96 L6.93,18.011 Z M19.146,27.075 C20.598,27.075 21.423,26.767 21.423,26.162 C21.423,25.568 20.598,25.249 19.146,25.249 C17.694,25.249 16.88,25.568 16.88,26.162 C16.88,26.767 17.694,27.075 19.146,27.075 Z M19.146,24.38 C21.291,24.38 22.567,25.029 22.567,26.162 C22.567,27.306 21.291,27.944 19.146,27.944 C17.012,27.944 15.725,27.306 15.725,26.162 C15.725,25.029 17.012,24.38 19.146,24.38 Z M17.936,21.828 L17.936,22.84 L20.378,22.84 L20.378,21.828 C20.015,21.883 19.608,21.916 19.168,21.916 C18.728,21.916 18.299,21.883 17.936,21.828 Z M19.168,19.056 C17.683,19.056 16.792,19.408 16.792,20.046 C16.792,20.684 17.683,21.047 19.168,21.047 C20.642,21.047 21.533,20.684 21.533,20.046 C21.533,19.408 20.642,19.056 19.168,19.056 Z M21.511,22.84 L23.656,22.84 L23.656,23.742 L14.669,23.742 L14.669,22.84 L16.803,22.84 L16.803,21.52 C16.055,21.201 15.626,20.695 15.626,20.046 C15.626,18.88 16.99,18.176 19.168,18.176 C21.335,18.176 22.71,18.88 22.71,20.046 C22.71,20.695 22.27,21.201 21.511,21.531 L21.511,22.84 Z M36.895,23.236 L36.895,20.31 L34.222,20.31 L34.222,19.397 L36.895,19.397 L36.895,18 L38.028,18 L38.028,23.236 L36.895,23.236 Z M35.52,21.19 L35.674,22.114 C34.09,22.411 32.693,22.488 31.153,22.488 L30.361,22.488 L30.361,18.473 L31.494,18.473 L31.494,21.553 C32.858,21.542 34.134,21.454 35.52,21.19 Z M34.695,27.13 C35.751,27.13 36.367,26.91 36.367,26.47 C36.367,26.041 35.751,25.81 34.695,25.81 C33.628,25.81 33.023,26.041 33.023,26.47 C33.023,26.91 33.628,27.13 34.695,27.13 Z M34.695,24.996 C36.433,24.996 37.5,25.535 37.5,26.47 C37.5,27.405 36.433,27.955 34.695,27.955 C32.957,27.955 31.901,27.405 31.901,26.47 C31.901,25.535 32.957,24.996 34.695,24.996 Z M35.267,23.764 L38.226,23.764 L38.226,24.633 L31.164,24.633 L31.164,23.764 L34.123,23.764 L34.123,22.862 L35.267,22.862 L35.267,23.764 Z M45.481,19.056 L50.189,19.056 C50.189,22.015 49.001,24.523 45.591,26.173 L44.986,25.271 C47.593,24.017 48.825,22.268 49.023,19.98 L45.481,19.98 L45.481,19.056 Z M51.982,18.011 L53.115,18.011 L53.115,27.944 L51.982,27.944 L51.982,18.011 Z" id="내용넣기" fill-rule="nonzero"></path>
                </g>
            </g>
        </g>
    </g>
</svg>