<?xml version="1.0" encoding="UTF-8"?>
<svg width="98px" height="52px" viewBox="0 0 98 52" version="1.1" xmlns="http://www.w3.org/2000/svg" xmlns:xlink="http://www.w3.org/1999/xlink">
    <!-- Generator: sketchtool 54.1 (76490) - https://sketchapp.com -->
    <title>A41018B7-7782-488A-B69A-1906B1A1D1BD</title>
    <desc>Created with sketchtool.</desc>
    <g id="Page-2" stroke="none" stroke-width="1" fill="none" fill-rule="evenodd">
        <g id="review18.-게시물-글쓰기-스택-추가할-때" transform="translate(-131.000000, -257.000000)">
            <g id="ic_editor_img_big" transform="translate(131.000000, 257.000000)">
                <rect id="Rectangle-Copy" fill="#F6F6F6" x="0" y="0" width="98" height="52"></rect>
                <text id="이미지" font-family="NanumSquareOTFR, NanumSquareOTF" font-size="11" font-weight="normal" fill="#2881D7">
                    <tspan x="34.485" y="41">이미지</tspan>
                </text>
                <g id="ic_editor_img" transform="translate(41.000000, 10.000000)">
                    <rect id="Rectangle" x="0" y="0" width="16" height="16"></rect>
                    <path d="M14,12.6666667 L14,3.33333333 C14,2.6 13.4,2 12.6666667,2 L3.33333333,2 C2.6,2 2,2.6 2,3.33333333 L2,12.6666667 C2,13.4 2.6,14 3.33333333,14 L12.6666667,14 C13.4,14 14,13.4 14,12.6666667 Z M5.66666667,9 L7.33333333,11.0066667 L9.66666667,8 L12.6666667,12 L3.33333333,12 L5.66666667,9 Z" fill="#5DA5F1"></path>
                </g>
            </g>
        </g>
    </g>
</svg>