<?xml version="1.0" encoding="UTF-8"?>
<svg width="98px" height="52px" viewBox="0 0 98 52" version="1.1" xmlns="http://www.w3.org/2000/svg" xmlns:xlink="http://www.w3.org/1999/xlink">
    <!-- Generator: sketchtool 54.1 (76490) - https://sketchapp.com -->
    <title>E3F4EECE-D314-4D5B-AC3D-BFC8875E6BA4</title>
    <desc>Created with sketchtool.</desc>
    <g id="Page-2" stroke="none" stroke-width="1" fill="none" fill-rule="evenodd">
        <g id="review18.-게시물-글쓰기-스택-추가할-때" transform="translate(-230.000000, -257.000000)">
            <g id="ic_editor_link_big" transform="translate(230.000000, 257.000000)">
                <path d="M0,0 L90,0 C94.418278,-8.11624501e-16 98,3.581722 98,8 L98,44 C98,48.418278 94.418278,52 90,52 L0,52 L0,0 Z" id="Rectangle-Copy-2" fill="#F6F6F6"></path>
                <text id="링크" font-family="NanumSquareOTFR, NanumSquareOTF" font-size="11" font-weight="normal" fill="#2881D7">
                    <tspan x="39.49" y="41">링크</tspan>
                </text>
                <g id="ic_editor_insertlink" transform="translate(41.000000, 10.000000)">
                    <rect id="Rectangle" x="0" y="0" width="16" height="16"></rect>
                    <path d="M1.52,8 C1.52,6.632 2.632,5.52 4,5.52 L7.2,5.52 L7.2,4 L4,4 C1.792,4 0,5.792 0,8 C0,10.208 1.792,12 4,12 L7.2,12 L7.2,10.48 L4,10.48 C2.632,10.48 1.52,9.368 1.52,8 Z M4.8,8.8 L11.2,8.8 L11.2,7.2 L4.8,7.2 L4.8,8.8 Z M12,4 L8.8,4 L8.8,5.52 L12,5.52 C13.368,5.52 14.48,6.632 14.48,8 C14.48,9.368 13.368,10.48 12,10.48 L8.8,10.48 L8.8,12 L12,12 C14.208,12 16,10.208 16,8 C16,5.792 14.208,4 12,4 Z" fill="#5DA5F1"></path>
                </g>
            </g>
        </g>
    </g>
</svg>