<?xml version="1.0" encoding="UTF-8"?>
<svg width="48px" height="30px" viewBox="0 0 48 30" version="1.1" xmlns="http://www.w3.org/2000/svg" xmlns:xlink="http://www.w3.org/1999/xlink">
    <!-- Generator: sketchtool 54.1 (76490) - https://sketchapp.com -->
    <title>96F47A5C-DE4F-4808-B2FF-BBCFA8FFED7B</title>
    <desc>Created with sketchtool.</desc>
    <g id="Page-2" stroke="none" stroke-width="1" fill="none" fill-rule="evenodd">
        <g id="review19.-게시물-글쓰기-텍스트-입력" transform="translate(-144.000000, -334.000000)">
            <g id="ic_editor_bold" transform="translate(144.000000, 334.000000)">
                <g id="Group-5-Copy-11">
                    <rect id="Rectangle" fill="#F6F6F6" x="0" y="0" width="48" height="30" rx="15"></rect>
                    <g id="ic_editor_bold" transform="translate(17.000000, 8.000000)">
                        <rect id="Rectangle" x="0" y="0" width="14" height="14"></rect>
                        <path d="M10.6,6.79 C11.57,6.12 12.25,5.02 12.25,4 C12.25,1.74 10.5,0 8.25,0 L2,0 L2,14 L9.04,14 C11.13,14 12.75,12.3 12.75,10.21 C12.75,8.69 11.89,7.39 10.6,6.79 Z M5,2.5 L8,2.5 C8.83,2.5 9.5,3.17 9.5,4 C9.5,4.83 8.83,5.5 8,5.5 L5,5.5 L5,2.5 Z M8.5,11.5 L5,11.5 L5,8.5 L8.5,8.5 C9.33,8.5 10,9.17 10,10 C10,10.83 9.33,11.5 8.5,11.5 Z" id="icon/editor/format_bold_24px" fill="#9B9B9B"></path>
                    </g>
                </g>
            </g>
        </g>
    </g>
</svg>