<?xml version="1.0" encoding="UTF-8"?>
<svg width="32px" height="24px" viewBox="0 0 32 24" version="1.1" xmlns="http://www.w3.org/2000/svg" xmlns:xlink="http://www.w3.org/1999/xlink">
    <!-- Generator: sketchtool 54.1 (76490) - https://sketchapp.com -->
    <title>9C713D5D-5A0E-4C34-AB9C-EEC1DD9C4857</title>
    <desc>Created with sketchtool.</desc>
    <g id="Page-2" stroke="none" stroke-width="1" fill="none" fill-rule="evenodd">
        <g id="review22.-게시물-글쓰기-내용물-스택을-완전히-삭제했을-때" transform="translate(-204.000000, -281.000000)">
            <g id="Group-3" transform="translate(125.000000, 281.000000)">
                <g id="ic_editor_redo" transform="translate(79.000000, 0.000000)">
                    <rect id="Rectangle" stroke="#F6F6F6" fill="#F6F6F6" x="0.5" y="0.5" width="31" height="23" rx="4"></rect>
                    <path d="M14.2307692,8.13797853 L14.2307692,10.5882353 L9,7.29411765 L14.2307692,4 L14.2307692,6.4850675 C14.3747468,6.4754689 14.5201034,6.47058824 14.6666667,6.47058824 L19.8974359,6.47058824 C23.267789,6.47058824 26,9.05153497 26,12.2352941 C26,15.4190533 23.267789,18 19.8974359,18 L19.8974359,16.3529412 C22.304831,16.3529412 24.2564103,14.5094078 24.2564103,12.2352941 C24.2564103,9.96118044 22.304831,8.11764706 19.8974359,8.11764706 L14.6666667,8.11764706 C14.5195515,8.11764706 14.3741386,8.12453154 14.2307692,8.13797804 Z M10.0362903,13.7082885 L10.0362903,14.3487621 L8.59101382,14.3487621 L8.59101382,14.3713671 C8.59101382,14.7481163 8.76324885,14.9817008 9.07776498,15.2077503 C9.39228111,15.4337998 9.77419355,15.6523143 10.1785714,15.8708288 L9.81912442,16.4434876 C9.48214286,16.262648 9.13018433,16.0516685 8.83064516,15.8632939 C8.4562212,15.6297094 8.29896313,15.4790097 8.24654378,15.3810549 L8.2390553,15.3810549 C8.19412442,15.4790097 8.02937788,15.6297094 7.66993088,15.8708288 C7.35541475,16.0818084 6.98847926,16.3153929 6.51670507,16.5715823 L6.14976959,15.9989236 C6.67396313,15.7125942 7.07085253,15.4639397 7.4078341,15.2228202 C7.72983871,14.9967707 7.84965438,14.7330463 7.84965438,14.3562971 L7.84965438,14.3487621 L6.38940092,14.3487621 L6.38940092,13.7082885 L7.84965438,13.7082885 L7.84965438,13 L8.59101382,13 L8.59101382,13.7082885 L10.0362903,13.7082885 Z M11.6538018,20 L10.9199309,20 L10.9199309,13.0527449 L11.6538018,13.0527449 L11.6538018,20 Z M8.58352535,19.7890205 L7.82718894,19.7890205 L7.82718894,17.5059203 C7.28052995,17.5209903 6.67396313,17.5209903 6,17.5209903 L6,16.8729817 C7.97695853,16.8805167 9.24251152,16.8353068 10.4855991,16.714747 L10.5455069,17.3401507 C9.92396313,17.4079656 9.29493088,17.4531755 8.58352535,17.4833154 L8.58352535,19.7890205 Z M15.8398618,15.5618945 L15.8323733,15.5618945 C15.7574885,15.7351991 15.4504608,15.9989236 14.9487327,16.3229279 C14.5144009,16.6017223 14.0351382,16.8955867 13.4135945,17.2421959 L13.046659,16.6544672 C13.6457373,16.3229279 14.1175115,16.0516685 14.6192396,15.7125942 C15.3006912,15.2454252 15.4579493,14.9214209 15.4579493,14.1829925 L15.4579493,13.5048439 L16.2067972,13.5048439 L16.2067972,14.1829925 C16.2067972,14.9214209 16.3191244,15.2303552 17.1278802,15.7653391 C17.5996544,16.0742734 18.0339862,16.3229279 18.625576,16.6469322 L18.266129,17.2271259 C17.7119816,16.9106566 17.1653226,16.5941873 16.7160138,16.3078579 C16.2292627,15.9989236 15.922235,15.7351991 15.8398618,15.5618945 Z M16.1993088,18.4402583 L19,18.4402583 L19,19.073197 L12.6647465,19.073197 L12.6647465,18.4402583 L15.4579493,18.4402583 L15.4579493,16.9483315 L16.1993088,16.9483315 L16.1993088,18.4402583 Z" id="Combined-Shape" fill="#9B9B9B" fill-rule="nonzero"></path>
                </g>
            </g>
        </g>
    </g>
</svg>